<svg width="318" height="54" viewBox="0 0 318 54" fill="none" xmlns="http://www.w3.org/2000/svg">
<path d="M71.6679 43.24C69.1719 43.24 66.9159 42.664 64.8999 41.512C62.9159 40.36 61.3319 38.792 60.1479 36.808C58.9959 34.792 58.4039 32.536 58.3719 30.04V7.384C58.3719 6.808 58.5319 6.36 58.8519 6.04C59.2039 5.688 59.6679 5.512 60.2439 5.512C60.7879 5.512 61.2199 5.688 61.5399 6.04C61.8919 6.36 62.0679 6.808 62.0679 7.384V21.496C63.1239 19.992 64.5159 18.792 66.2439 17.896C68.0039 16.968 69.9559 16.504 72.0999 16.504C74.5639 16.504 76.7719 17.096 78.7239 18.28C80.6759 19.432 82.2119 21.016 83.3319 23.032C84.4839 25.048 85.0599 27.32 85.0599 29.848C85.0599 32.408 84.4679 34.696 83.2839 36.712C82.1319 38.728 80.5479 40.328 78.5319 41.512C76.5159 42.664 74.2279 43.24 71.6679 43.24ZM71.6679 39.88C73.5239 39.88 75.1879 39.448 76.6599 38.584C78.1319 37.688 79.2839 36.488 80.1159 34.984C80.9799 33.48 81.4119 31.768 81.4119 29.848C81.4119 27.96 80.9799 26.264 80.1159 24.76C79.2839 23.224 78.1319 22.024 76.6599 21.16C75.1879 20.296 73.5239 19.864 71.6679 19.864C69.8439 19.864 68.1959 20.296 66.7239 21.16C65.2519 22.024 64.0999 23.224 63.2679 24.76C62.4359 26.264 62.0199 27.96 62.0199 29.848C62.0199 31.768 62.4359 33.48 63.2679 34.984C64.0999 36.488 65.2519 37.688 66.7239 38.584C68.1959 39.448 69.8439 39.88 71.6679 39.88ZM103.013 43.288C100.741 43.288 98.7094 42.824 96.9174 41.896C95.1254 40.936 93.7014 39.544 92.6454 37.72C91.6214 35.896 91.1094 33.672 91.1094 31.048V18.568C91.1094 18.056 91.2854 17.624 91.6374 17.272C91.9894 16.92 92.4214 16.744 92.9334 16.744C93.4774 16.744 93.9254 16.92 94.2774 17.272C94.6294 17.624 94.8054 18.056 94.8054 18.568V31.048C94.8054 33.032 95.1734 34.664 95.9094 35.944C96.6774 37.224 97.7014 38.184 98.9814 38.824C100.293 39.464 101.765 39.784 103.397 39.784C104.965 39.784 106.373 39.48 107.621 38.872C108.901 38.264 109.909 37.432 110.645 36.376C111.381 35.32 111.749 34.12 111.749 32.776H114.389C114.293 34.792 113.733 36.6 112.709 38.2C111.717 39.768 110.373 41.016 108.677 41.944C106.981 42.84 105.093 43.288 103.013 43.288ZM113.573 43C113.029 43 112.581 42.84 112.229 42.52C111.909 42.168 111.749 41.704 111.749 41.128V18.568C111.749 18.024 111.909 17.592 112.229 17.272C112.581 16.92 113.029 16.744 113.573 16.744C114.117 16.744 114.565 16.92 114.917 17.272C115.269 17.592 115.445 18.024 115.445 18.568V41.128C115.445 41.704 115.269 42.168 114.917 42.52C114.565 42.84 114.117 43 113.573 43ZM135.306 43.24C132.778 43.24 130.506 42.664 128.49 41.512C126.474 40.328 124.874 38.728 123.69 36.712C122.538 34.696 121.962 32.408 121.962 29.848C121.962 27.32 122.522 25.048 123.642 23.032C124.794 21.016 126.346 19.432 128.298 18.28C130.25 17.096 132.458 16.504 134.922 16.504C137.066 16.504 139.002 16.968 140.73 17.896C142.458 18.792 143.85 19.992 144.906 21.496V7.384C144.906 6.808 145.082 6.36 145.434 6.04C145.786 5.688 146.234 5.512 146.778 5.512C147.322 5.512 147.77 5.688 148.122 6.04C148.474 6.36 148.65 6.808 148.65 7.384V30.04C148.586 32.536 147.962 34.792 146.778 36.808C145.626 38.792 144.042 40.36 142.026 41.512C140.042 42.664 137.802 43.24 135.306 43.24ZM135.306 39.88C137.162 39.88 138.81 39.448 140.25 38.584C141.722 37.688 142.874 36.488 143.706 34.984C144.57 33.48 145.002 31.768 145.002 29.848C145.002 27.96 144.57 26.264 143.706 24.76C142.874 23.224 141.722 22.024 140.25 21.16C138.81 20.296 137.162 19.864 135.306 19.864C133.482 19.864 131.834 20.296 130.362 21.16C128.89 22.024 127.722 23.224 126.858 24.76C125.994 26.264 125.562 27.96 125.562 29.848C125.562 31.768 125.994 33.48 126.858 34.984C127.722 36.488 128.89 37.688 130.362 38.584C131.834 39.448 133.482 39.88 135.306 39.88ZM168.139 43.24C165.611 43.24 163.371 42.68 161.419 41.56C159.467 40.408 157.931 38.824 156.811 36.808C155.723 34.792 155.179 32.488 155.179 29.896C155.179 27.272 155.755 24.952 156.907 22.936C158.059 20.92 159.643 19.352 161.659 18.232C163.675 17.08 165.963 16.504 168.523 16.504C171.115 16.504 173.403 17.08 175.387 18.232C177.403 19.352 178.971 20.92 180.091 22.936C181.243 24.952 181.835 27.272 181.867 29.896L179.707 31.048C179.707 33.416 179.211 35.528 178.219 37.384C177.227 39.208 175.851 40.648 174.091 41.704C172.363 42.728 170.379 43.24 168.139 43.24ZM168.619 53.368C166.091 53.368 163.867 52.888 161.947 51.928C160.027 51 158.443 49.72 157.195 48.088C156.843 47.704 156.683 47.288 156.715 46.84C156.779 46.392 157.019 46.024 157.435 45.736C157.851 45.448 158.315 45.352 158.827 45.448C159.339 45.544 159.739 45.784 160.027 46.168C160.955 47.32 162.139 48.248 163.579 48.952C165.051 49.656 166.747 50.008 168.667 50.008C170.459 50.008 172.075 49.576 173.515 48.712C174.955 47.848 176.091 46.632 176.923 45.064C177.787 43.496 178.219 41.656 178.219 39.544V32.248L179.611 29.464L181.867 29.896V39.688C181.867 42.28 181.291 44.6 180.139 46.648C178.987 48.728 177.419 50.36 175.435 51.544C173.451 52.76 171.179 53.368 168.619 53.368ZM168.523 39.88C170.411 39.88 172.075 39.464 173.515 38.632C174.987 37.768 176.139 36.584 176.971 35.08C177.803 33.576 178.219 31.848 178.219 29.896C178.219 27.944 177.803 26.216 176.971 24.712C176.139 23.176 174.987 21.992 173.515 21.16C172.075 20.296 170.411 19.864 168.523 19.864C166.635 19.864 164.955 20.296 163.483 21.16C162.011 21.992 160.859 23.176 160.027 24.712C159.195 26.216 158.779 27.944 158.779 29.896C158.779 31.848 159.195 33.576 160.027 35.08C160.859 36.584 162.011 37.768 163.483 38.632C164.955 39.464 166.635 39.88 168.523 39.88ZM200.24 43.24C197.648 43.24 195.344 42.68 193.328 41.56C191.344 40.408 189.776 38.824 188.624 36.808C187.504 34.792 186.944 32.488 186.944 29.896C186.944 27.272 187.472 24.968 188.528 22.984C189.616 20.968 191.104 19.384 192.992 18.232C194.88 17.08 197.056 16.504 199.52 16.504C201.952 16.504 204.064 17.064 205.856 18.184C207.68 19.272 209.088 20.792 210.08 22.744C211.072 24.696 211.568 26.92 211.568 29.416C211.568 29.928 211.408 30.344 211.088 30.664C210.768 30.952 210.352 31.096 209.84 31.096H189.44V28.024H210.224L208.16 29.512C208.192 27.656 207.856 25.992 207.152 24.52C206.448 23.048 205.44 21.896 204.128 21.064C202.848 20.232 201.312 19.816 199.52 19.816C197.696 19.816 196.096 20.248 194.72 21.112C193.344 21.976 192.272 23.176 191.504 24.712C190.768 26.216 190.4 27.944 190.4 29.896C190.4 31.848 190.816 33.576 191.648 35.08C192.512 36.584 193.68 37.768 195.152 38.632C196.624 39.496 198.32 39.928 200.24 39.928C201.392 39.928 202.544 39.736 203.696 39.352C204.88 38.936 205.824 38.424 206.528 37.816C206.88 37.528 207.28 37.384 207.728 37.384C208.176 37.352 208.56 37.464 208.88 37.72C209.296 38.104 209.504 38.52 209.504 38.968C209.536 39.416 209.36 39.8 208.976 40.12C207.92 41.016 206.576 41.768 204.944 42.376C203.312 42.952 201.744 43.24 200.24 43.24ZM227.372 43C225.676 43 224.156 42.6 222.812 41.8C221.5 41 220.46 39.912 219.692 38.536C218.924 37.128 218.54 35.528 218.54 33.736V10.264C218.54 9.72 218.7 9.272 219.02 8.92C219.372 8.568 219.82 8.392 220.364 8.392C220.908 8.392 221.356 8.568 221.708 8.92C222.06 9.272 222.236 9.72 222.236 10.264V33.736C222.236 35.368 222.716 36.712 223.676 37.768C224.636 38.792 225.868 39.304 227.372 39.304H228.668C229.18 39.304 229.596 39.48 229.916 39.832C230.236 40.184 230.396 40.632 230.396 41.176C230.396 41.72 230.204 42.168 229.82 42.52C229.436 42.84 228.956 43 228.38 43H227.372ZM215.42 20.92C214.94 20.92 214.54 20.776 214.22 20.488C213.9 20.168 213.74 19.784 213.74 19.336C213.74 18.856 213.9 18.472 214.22 18.184C214.54 17.864 214.94 17.704 215.42 17.704H227.66C228.14 17.704 228.54 17.864 228.86 18.184C229.18 18.472 229.34 18.856 229.34 19.336C229.34 19.784 229.18 20.168 228.86 20.488C228.54 20.776 228.14 20.92 227.66 20.92H215.42ZM247.596 43.24C245.004 43.24 242.7 42.68 240.684 41.56C238.7 40.408 237.132 38.824 235.98 36.808C234.86 34.792 234.3 32.488 234.3 29.896C234.3 27.272 234.828 24.968 235.884 22.984C236.972 20.968 238.46 19.384 240.348 18.232C242.236 17.08 244.412 16.504 246.876 16.504C249.308 16.504 251.42 17.064 253.212 18.184C255.036 19.272 256.444 20.792 257.436 22.744C258.428 24.696 258.924 26.92 258.924 29.416C258.924 29.928 258.764 30.344 258.444 30.664C258.124 30.952 257.708 31.096 257.196 31.096H236.796V28.024H257.58L255.516 29.512C255.548 27.656 255.212 25.992 254.508 24.52C253.804 23.048 252.796 21.896 251.484 21.064C250.204 20.232 248.668 19.816 246.876 19.816C245.052 19.816 243.452 20.248 242.076 21.112C240.7 21.976 239.628 23.176 238.86 24.712C238.124 26.216 237.756 27.944 237.756 29.896C237.756 31.848 238.172 33.576 239.004 35.08C239.868 36.584 241.036 37.768 242.508 38.632C243.98 39.496 245.676 39.928 247.596 39.928C248.748 39.928 249.9 39.736 251.052 39.352C252.236 38.936 253.18 38.424 253.884 37.816C254.236 37.528 254.636 37.384 255.084 37.384C255.532 37.352 255.916 37.464 256.236 37.72C256.652 38.104 256.86 38.52 256.86 38.968C256.892 39.416 256.716 39.8 256.332 40.12C255.276 41.016 253.932 41.768 252.3 42.376C250.668 42.952 249.1 43.24 247.596 43.24ZM275.423 43.24C272.831 43.24 270.527 42.68 268.511 41.56C266.527 40.408 264.959 38.824 263.807 36.808C262.687 34.792 262.127 32.488 262.127 29.896C262.127 27.272 262.655 24.968 263.711 22.984C264.799 20.968 266.287 19.384 268.175 18.232C270.063 17.08 272.239 16.504 274.703 16.504C277.135 16.504 279.247 17.064 281.039 18.184C282.863 19.272 284.271 20.792 285.263 22.744C286.255 24.696 286.751 26.92 286.751 29.416C286.751 29.928 286.591 30.344 286.271 30.664C285.951 30.952 285.535 31.096 285.023 31.096H264.623V28.024H285.407L283.343 29.512C283.375 27.656 283.039 25.992 282.335 24.52C281.631 23.048 280.623 21.896 279.311 21.064C278.031 20.232 276.495 19.816 274.703 19.816C272.879 19.816 271.279 20.248 269.903 21.112C268.527 21.976 267.455 23.176 266.687 24.712C265.951 26.216 265.583 27.944 265.583 29.896C265.583 31.848 265.999 33.576 266.831 35.08C267.695 36.584 268.863 37.768 270.335 38.632C271.807 39.496 273.503 39.928 275.423 39.928C276.575 39.928 277.727 39.736 278.879 39.352C280.063 38.936 281.007 38.424 281.711 37.816C282.063 37.528 282.463 37.384 282.911 37.384C283.359 37.352 283.743 37.464 284.063 37.72C284.479 38.104 284.687 38.52 284.687 38.968C284.719 39.416 284.543 39.8 284.159 40.12C283.103 41.016 281.759 41.768 280.127 42.376C278.495 42.952 276.927 43.24 275.423 43.24ZM293.82 26.824C293.916 24.84 294.428 23.064 295.356 21.496C296.316 19.928 297.548 18.696 299.052 17.8C300.588 16.904 302.284 16.456 304.14 16.456C305.612 16.456 306.748 16.664 307.548 17.08C308.348 17.496 308.652 18.104 308.46 18.904C308.332 19.384 308.108 19.704 307.788 19.864C307.5 20.024 307.132 20.088 306.684 20.056C306.268 20.024 305.788 19.992 305.244 19.96C303.452 19.8 301.852 19.992 300.444 20.536C299.068 21.048 297.964 21.848 297.132 22.936C296.332 24.024 295.932 25.32 295.932 26.824H293.82ZM294.108 43C293.532 43 293.084 42.84 292.764 42.52C292.444 42.2 292.284 41.752 292.284 41.176V18.568C292.284 17.992 292.444 17.544 292.764 17.224C293.084 16.904 293.532 16.744 294.108 16.744C294.684 16.744 295.132 16.904 295.452 17.224C295.772 17.544 295.932 17.992 295.932 18.568V41.176C295.932 41.752 295.772 42.2 295.452 42.52C295.132 42.84 294.684 43 294.108 43Z" fill="black"/>
<path fill-rule="evenodd" clip-rule="evenodd" d="M27.7871 5H0V31.7407L11.6998 43V16.2593H39.4869L27.7871 5Z" fill="url(#paint0_linear)"/>
<path fill-rule="evenodd" clip-rule="evenodd" d="M30.9044 35.7407L30.9044 9L42.6042 20.2593V47L30.9044 35.7407ZM14.817 47H42.6042L30.9043 35.7407L3.11721 35.7407L14.817 47Z" fill="black"/>
<defs>
<linearGradient id="paint0_linear" x1="27.7871" y1="5" x2="12.7302" y2="43.404" gradientUnits="userSpaceOnUse">
<stop stop-color="#FF00D6"/>
<stop offset="1" stop-color="#FF4D00"/>
</linearGradient>
</defs>
</svg>
